<?xml version="1.0" standalone="no"?>
<!DOCTYPE svg PUBLIC "-//W3C//DTD SVG 20010904//EN"
 "http://www.w3.org/TR/2001/REC-SVG-20010904/DTD/svg10.dtd">
<svg version="1.0" xmlns="http://www.w3.org/2000/svg"
 width="512.000000pt" height="512.000000pt" viewBox="0 0 512.000000 512.000000"
 preserveAspectRatio="xMidYMid meet">

<g transform="translate(0.000000,512.000000) scale(0.100000,-0.100000)"
fill="#000000" stroke="none">
<path d="M1742 5007 l-112 -112 180 -180 180 -179 -124 -27 c-321 -70 -622
-208 -890 -407 -119 -89 -301 -264 -393 -377 -270 -335 -443 -737 -498 -1158
-21 -165 -17 -568 6 -591 2 -3 67 4 144 14 77 11 145 20 150 20 6 0 10 93 10
257 0 243 2 266 28 386 88 410 261 735 541 1012 227 227 470 377 766 474 63
21 128 42 144 45 l30 7 -44 -48 c-24 -26 -85 -91 -137 -143 l-93 -95 108 -107
c58 -60 111 -108 117 -108 6 0 170 160 365 355 l355 355 -360 360 -360 360
-113 -113z"/>
<path d="M3207 4383 c-11 -17 -118 -285 -115 -287 307 -147 428 -227 607 -400
184 -179 299 -337 406 -558 206 -424 254 -877 144 -1336 -13 -54 -26 -88 -30
-80 -4 7 -28 92 -54 189 l-47 177 -32 -9 c-17 -5 -85 -23 -151 -41 -66 -17
-121 -32 -123 -33 -1 -1 56 -221 128 -488 71 -267 130 -488 130 -491 0 -2 48
9 108 25 59 16 278 75 487 130 209 56 382 103 384 105 7 7 -74 296 -84 300 -6
3 -117 -24 -248 -59 -130 -35 -237 -63 -237 -62 0 1 11 35 25 76 261 762 93
1618 -438 2234 -197 229 -426 406 -707 547 -139 70 -146 73 -153 61z"/>
<path d="M266 925 c-72 -266 -128 -487 -125 -489 10 -11 294 -83 301 -77 3 3
34 113 69 243 l62 237 120 -125 c185 -193 367 -331 589 -449 660 -348 1461
-351 2121 -7 114 60 328 199 334 218 2 6 -16 35 -39 65 -23 30 -66 84 -96 121
l-53 68 -67 -48 c-317 -228 -735 -362 -1126 -362 -460 0 -922 168 -1271 462
-98 83 -174 158 -160 158 5 0 84 -20 176 -45 92 -25 174 -45 182 -45 10 0 26
45 54 148 23 81 38 150 34 153 -7 6 -950 259 -966 259 -5 0 -68 -218 -139
-485z"/>
</g>
</svg>
